<svg xmlns="http://www.w3.org/2000/svg" viewBox="0 0 600 160" version="1.1" xml:space="preserve" stroke-linejoin="round"><g transform="matrix(1.03954,0,0,0.627243,-15.3319,0)"><g transform="matrix(1.09855,0,0,1.82065,0,0)"><rect x="15.4" y="0" width="20.8" height="138"/></g><g transform="matrix(1.09855,0,0,1.82065,0,0)"><path d="M143.5 97.7L65.9 97.7C66.4 104.8 69.7 110.6 75.8 115 81.9 119.4 88.8 121.6 96.6 121.6 109 121.6 118.5 117.7 124.9 109.9L136.8 122.9C126.1 134 112.3 139.5 95.1 139.5 81.3 139.5 69.4 134.9 59.7 125.6 50 116.4 45.1 104 45.1 88.4 45.1 72.9 50.1 60.5 60 51.3 69.9 42.2 81.6 37.6 95.1 37.6 108.5 37.6 119.9 41.6 129.4 49.8 138.8 57.9 143.5 69.1 143.5 83.3L143.5 97.7ZM65.9 81.3L122.7 81.3C122.7 73 120.1 66.6 114.9 62.1 109.7 57.7 103.2 55.4 95.6 55.4 88 55.4 81.1 57.8 75.1 62.4 69 67.1 65.9 73.3 65.9 81.3Z"/></g><g transform="matrix(1.09855,0,0,1.82065,0,0)"><path d="M178.3 55.8L178.3 106C178.3 110.7 179.5 114.5 182 117.3 184.5 120.1 188 121.5 192.4 121.5 196.9 121.5 201.2 119.3 205.3 114.9L213.8 129.6C206.5 136.2 198.4 139.5 189.5 139.5 180.7 139.5 173.1 136.4 166.9 130.3 160.6 124.2 157.5 115.9 157.5 105.5L157.5 55.8 145 55.8 145 39.1 157.5 39.1 157.5 8 178.3 8 178.3 39.1 204.3 39.1 204.3 55.8 178.3 55.8Z"/></g><g transform="matrix(1.09855,0,0,1.82065,0,0)"><path d="M285.1 131C278.2 136.7 269.5 139.5 258.8 139.5 251.6 139.5 244.2 138.2 236.4 135.6 228.7 133 221.8 129.3 215.9 124.6L225.9 108.4C237.4 117.1 248.6 121.5 259.4 121.5 264.1 121.5 267.8 120.4 270.5 118.2 273.3 116 274.6 113.3 274.6 109.9 274.6 105 268.1 100.5 254.9 96.5 253.9 96.2 253.2 95.9 252.7 95.8 232.1 90.2 221.8 80.9 221.8 67.9 221.8 58.7 225.4 51.4 232.5 45.8 239.6 40.3 248.9 37.6 260.3 37.6 271.7 37.6 282.5 40.9 292.7 47.6L284.9 63.1C276.8 57.7 268.1 55.1 258.6 55.1 253.7 55.1 249.7 56 246.6 57.8 243.5 59.6 241.9 62.2 241.9 65.8 241.9 69.1 243.5 71.4 246.7 72.9 249 74 252.1 75.1 256.1 76.1 260.2 77.1 263.7 78.1 266.8 79.1 269.9 80 272.9 81.2 275.8 82.4 278.8 83.6 281.9 85.4 285.2 87.6 291.9 92.1 295.3 99 295.3 108.4 295.3 117.9 291.9 125.4 285.1 131Z"/></g><g transform="matrix(1.09855,0,0,1.82065,0,0)"><path d="M400.7 74.8L422.7 74.8 422.7 119.2C410.4 132.7 392.9 139.5 370.1 139.5 350.8 139.5 334.7 133.2 321.8 120.5 308.8 107.9 302.4 91.9 302.4 72.5 302.4 53.2 309 37.1 322.2 24.2 335.4 11.3 351.3 4.8 370.1 4.8 388.8 4.8 404.3 10.3 416.7 21.2L405 37.9C399.9 33.6 394.8 30.6 389.7 28.9 384.5 27.2 378.5 26.4 371.7 26.4 358.6 26.4 347.5 30.7 338.6 39.2 329.7 47.6 325.2 58.8 325.2 72.6 325.2 86.5 329.6 97.6 338.2 105.9 346.9 114.3 357.4 118.5 369.8 118.5 382.1 118.5 392.4 115.8 400.7 110.5L400.7 74.8Z"/></g><g transform="matrix(1.09855,0,0,1.82065,0,0)"><path d="M484.8 120.9C493.9 120.9 501.3 117.9 507.2 111.9 513.1 105.9 516.1 98.1 516.1 88.5 516.1 79 513.1 71.2 507.2 65.2 501.3 59.2 493.9 56.2 484.8 56.2 475.8 56.2 468.3 59.2 462.4 65.2 456.5 71.2 453.6 79 453.6 88.5 453.6 98.1 456.5 105.9 462.4 111.9 468.3 117.9 475.8 120.9 484.8 120.9ZM484.8 139.5C469.9 139.5 457.5 134.6 447.6 124.7 437.7 114.9 432.7 102.8 432.7 88.5 432.7 74.3 437.7 62.2 447.6 52.4 457.5 42.5 469.9 37.6 484.8 37.6 499.7 37.6 512.1 42.5 522 52.4 531.9 62.2 536.9 74.3 536.9 88.5 536.9 102.8 531.9 114.9 522 124.7 512.1 134.6 499.7 139.5 484.8 139.5Z"/></g></g></svg>
